<?xml version="1.0" encoding="UTF-8" standalone="no"?>
<!-- Uploaded to: SVG Repo, www.svgrepo.com, Generator: SVG Repo Mixer Tools -->

<svg
   fill="#000000"
   version="1.1"
   id="Capa_1"
   width="800px"
   height="800px"
   viewBox="0 0 93.584 93.584"
   xml:space="preserve"
   sodipodi:docname="pencil-writing-on-a-paper-svgrepo-com.svg"
   inkscape:version="1.4.2 (1:1.4.2+202505120738+ebf0e940d0)"
   xmlns:inkscape="http://www.inkscape.org/namespaces/inkscape"
   xmlns:sodipodi="http://sodipodi.sourceforge.net/DTD/sodipodi-0.dtd"
   xmlns="http://www.w3.org/2000/svg"
   xmlns:svg="http://www.w3.org/2000/svg"><defs
   id="defs3" /><sodipodi:namedview
   id="namedview3"
   pagecolor="#505050"
   bordercolor="#ffffff"
   borderopacity="1"
   inkscape:showpageshadow="0"
   inkscape:pageopacity="0"
   inkscape:pagecheckerboard="1"
   inkscape:deskcolor="#505050"
   inkscape:zoom="1.01375"
   inkscape:cx="400"
   inkscape:cy="400"
   inkscape:window-width="1920"
   inkscape:window-height="1016"
   inkscape:window-x="0"
   inkscape:window-y="27"
   inkscape:window-maximized="1"
   inkscape:current-layer="g3" />
<g
   id="g3"
   style="stroke-width:0.99994504;stroke-dasharray:none">
	<g
   id="g2"
   style="stroke-width:0.999945;stroke-dasharray:none;fill:#1c2681;fill-opacity:1"
   transform="translate(1.7309001,0.57696671)">
		<path
   d="m 90.895,42.292 -7.122,-7.123 c -0.993,-0.995 -2.341,-1.553 -3.745,-1.553 -1.406,0 -2.754,0.559 -3.746,1.553 l -1.97,1.971 V 0 H 1.137 V 93.584 H 74.312 V 66.632 l 16.583,-16.85 c 2.07,-2.067 2.07,-5.422 0,-7.49 z M 66.365,85.639 H 9.082 V 7.946 h 57.284 v 37.313 l -6.957,6.96 V 46.792 H 16.701 v 5.463 h 42.67 l -12.596,12.6 c -0.622,0.623 -1.08,1.393 -1.331,2.234 l -3.031,10.19 c -0.554,1.864 -0.042,3.881 1.333,5.256 1.006,1.009 2.359,1.552 3.745,1.552 0.504,0 1.012,-0.072 1.51,-0.221 l 10.191,-3.03 c 0.844,-0.251 1.611,-0.708 2.235,-1.331 l 4.937,-4.934 V 85.639 Z M 57.455,75.92 47.264,78.951 50.295,68.76 73.16,45.886 l 7.172,7.171 z m 25.215,-25.472 -7.121,-7.123 4.25,-4.252 7.123,7.122 z"
   id="path1"
   style="stroke-width:0.999945;stroke-dasharray:none;fill:#1c2681;fill-opacity:1" />
		<rect
   x="16.701"
   y="17.575001"
   width="42.708"
   height="5.4619999"
   id="rect1"
   style="stroke-width:0.999945;stroke-dasharray:none;fill:#1c2681;fill-opacity:1" />
		<rect
   x="16.701"
   y="31.976999"
   width="42.708"
   height="5.4640002"
   id="rect2"
   style="stroke-width:0.999945;stroke-dasharray:none;fill:#1c2681;fill-opacity:1" />
	</g>
</g>
</svg>
