<?xml version="1.0" encoding="UTF-8" standalone="no"?>
<!-- Uploaded to: SVG Repo, www.svgrepo.com, Generator: SVG Repo Mixer Tools -->

<svg
   width="800px"
   height="800px"
   viewBox="0 0 24 24"
   fill="none"
   version="1.1"
   id="svg5"
   sodipodi:docname="database-svgrepo-com.svg"
   inkscape:version="1.4.2 (1:1.4.2+202505120738+ebf0e940d0)"
   xmlns:inkscape="http://www.inkscape.org/namespaces/inkscape"
   xmlns:sodipodi="http://sodipodi.sourceforge.net/DTD/sodipodi-0.dtd"
   xmlns="http://www.w3.org/2000/svg"
   xmlns:svg="http://www.w3.org/2000/svg">
  <defs
     id="defs5" />
  <sodipodi:namedview
     id="namedview5"
     pagecolor="#505050"
     bordercolor="#ffffff"
     borderopacity="1"
     inkscape:showpageshadow="0"
     inkscape:pageopacity="0"
     inkscape:pagecheckerboard="1"
     inkscape:deskcolor="#505050"
     inkscape:zoom="1.01375"
     inkscape:cx="400"
     inkscape:cy="400"
     inkscape:window-width="1920"
     inkscape:window-height="1016"
     inkscape:window-x="0"
     inkscape:window-y="27"
     inkscape:window-maximized="1"
     inkscape:current-layer="svg5" />
  <path
     d="M4 18V6"
     stroke="#1C274C"
     stroke-width="1.5"
     stroke-linecap="round"
     id="path1"
     style="fill:none;fill-opacity:1;stroke:#1c2681;stroke-opacity:1" />
  <path
     d="M20 6V18"
     stroke="#1C274C"
     stroke-width="1.5"
     stroke-linecap="round"
     id="path2"
     style="fill:none;fill-opacity:1;stroke:#1c2681;stroke-opacity:1" />
  <path
     d="M12 10C16.4183 10 20 8.20914 20 6C20 3.79086 16.4183 2 12 2C7.58172 2 4 3.79086 4 6C4 8.20914 7.58172 10 12 10Z"
     stroke="#1C274C"
     stroke-width="1.5"
     id="path3"
     style="fill:none;fill-opacity:1;stroke:#1c2681;stroke-opacity:1" />
  <path
     d="M20 12C20 14.2091 16.4183 16 12 16C7.58172 16 4 14.2091 4 12"
     stroke="#1C274C"
     stroke-width="1.5"
     id="path4"
     style="fill:none;fill-opacity:1;stroke:#1c2681;stroke-opacity:1" />
  <path
     d="M20 18C20 20.2091 16.4183 22 12 22C7.58172 22 4 20.2091 4 18"
     stroke="#1C274C"
     stroke-width="1.5"
     id="path5"
     style="fill:none;fill-opacity:1;stroke:#1c2681;stroke-opacity:1" />
</svg>
